<?xml version="1.0" standalone="no"?>
<!DOCTYPE svg PUBLIC "-//W3C//DTD SVG 20010904//EN"
 "http://www.w3.org/TR/2001/REC-SVG-20010904/DTD/svg10.dtd">
<svg version="1.0" xmlns="http://www.w3.org/2000/svg"
 width="70.000000pt" height="70.000000pt" viewBox="0 0 70.000000 70.000000"
 preserveAspectRatio="xMidYMid meet">
<metadata>
Created by potrace 1.14, written by Peter Selinger 2001-2017
</metadata>
<g transform="translate(0.000000,70.000000) scale(0.100000,-0.100000)"
fill="#000000" stroke="none">
<path d="M227 623 c-4 -3 -7 -15 -7 -25 0 -10 -7 -18 -15 -18 -9 0 -15 -9 -15
-25 0 -14 -4 -25 -10 -25 -5 0 -10 -11 -10 -25 0 -13 -6 -28 -14 -32 -13 -8
-23 -59 -30 -153 -2 -24 -9 -46 -15 -48 -6 -2 -11 -26 -11 -57 0 -45 3 -55 20
-60 11 -3 20 -13 20 -21 0 -8 10 -14 24 -14 13 0 26 -7 30 -15 3 -8 17 -15 31
-15 16 0 25 -6 25 -15 0 -11 11 -15 40 -15 22 0 40 -4 40 -10 0 -5 9 -10 20
-10 11 0 20 5 20 10 0 6 18 10 40 10 29 0 40 4 40 15 0 9 9 15 25 15 14 0 28
7 31 15 4 8 17 15 30 15 14 0 24 6 24 14 0 8 9 18 20 21 17 5 20 15 20 60 0
31 -5 55 -11 57 -6 2 -13 24 -15 48 -7 94 -17 145 -30 153 -8 4 -14 19 -14 32
0 14 -4 25 -10 25 -5 0 -10 11 -10 25 0 16 -6 25 -15 25 -8 0 -15 9 -15 19 0
28 -14 33 -32 13 -65 -72 -127 -72 -198 1 -9 9 -20 14 -23 10z m48 -243 c-3
-5 -10 -10 -16 -10 -5 0 -9 5 -9 10 0 6 7 10 16 10 8 0 12 -4 9 -10z m175 0
c0 -5 -4 -10 -9 -10 -6 0 -13 5 -16 10 -3 6 1 10 9 10 9 0 16 -4 16 -10z
m-120 -95 c0 -8 9 -15 20 -15 11 0 20 7 20 15 0 21 11 18 38 -9 21 -23 22 -25
5 -35 -17 -10 -17 -12 0 -21 21 -13 22 -30 2 -30 -8 0 -15 -7 -15 -15 0 -8 -7
-15 -15 -15 -8 0 -15 7 -15 15 0 8 -9 15 -20 15 -11 0 -20 -7 -20 -15 0 -8 -7
-15 -15 -15 -8 0 -15 7 -15 15 0 8 -7 15 -15 15 -20 0 -19 17 3 30 16 9 16 11
-1 21 -17 10 -16 12 5 35 27 27 38 30 38 9z"/>
<path d="M330 230 c0 -5 9 -10 20 -10 11 0 20 5 20 10 0 6 -9 10 -20 10 -11 0
-20 -4 -20 -10z"/>
</g>
</svg>
